<?xml version="1.0" standalone="no"?>
<!DOCTYPE svg PUBLIC "-//W3C//DTD SVG 20010904//EN"
 "http://www.w3.org/TR/2001/REC-SVG-20010904/DTD/svg10.dtd">
<svg version="1.0" xmlns="http://www.w3.org/2000/svg"
 width="1080.000000pt" height="1080.000000pt" viewBox="0 0 1080.000000 1080.000000"
 preserveAspectRatio="xMidYMid meet">
<metadata>
Created by potrace 1.14, written by Peter Selinger 2001-2017
</metadata>
<g transform="translate(0.000000,1080.000000) scale(0.100000,-0.100000)"
fill="#000000" stroke="none">
<path d="M889 8262 l-25 -3 2 -2227 c1 -1225 5 -2249 8 -2277 64 -556 291
-898 716 -1078 94 -40 248 -75 401 -92 73 -8 311 -8 369 -1 25 3 61 8 80 10
127 14 297 64 410 121 114 56 180 103 277 200 192 193 293 413 347 760 17 108
19 414 20 2384 1 1828 -1 2194 -12 2199 -8 3 -200 5 -428 6 l-414 1 -1 -2200
c0 -1210 -2 -2219 -4 -2242 -1 -23 -6 -59 -10 -80 -5 -21 -9 -43 -11 -50 -26
-130 -130 -249 -246 -284 -76 -23 -214 -31 -278 -16 -71 15 -88 21 -128 44
-94 53 -151 131 -189 259 -17 56 -18 188 -21 2308 -1 1238 -4 2252 -7 2254 -5
5 -815 9 -856 4z"/>
<path d="M4083 6015 c1 -1237 6 -2268 9 -2290 4 -22 12 -71 18 -110 77 -485
359 -837 775 -966 79 -24 227 -55 275 -58 20 -1 47 -4 60 -6 30 -6 326 -7 355
-2 11 3 47 8 80 11 33 4 76 11 95 16 19 5 49 11 65 14 49 9 155 46 233 82 213
98 389 271 501 492 28 55 101 244 100 257 0 3 6 36 15 73 8 37 18 87 21 112 3
25 9 61 12 80 4 19 9 1049 10 2288 l4 2252 -31 1 c-39 0 -704 0 -772 0 l-53
-1 0 -2228 c-1 -2104 -2 -2231 -19 -2307 -29 -131 -72 -205 -156 -266 -68 -50
-142 -71 -265 -74 -252 -5 -408 137 -441 401 -4 33 -8 1050 -8 2261 -1 1211
-4 2205 -8 2209 -4 4 -203 7 -443 8 l-436 1 4 -2250z"/>
<path d="M7307 8260 c-10 -4 -12 -470 -11 -2210 0 -1213 4 -2234 9 -2270 4
-36 7 -72 7 -80 0 -8 4 -31 9 -50 4 -19 10 -53 13 -75 16 -136 95 -343 185
-486 171 -270 469 -448 826 -494 22 -3 58 -7 80 -10 50 -7 341 -7 375 0 14 2
45 7 70 9 391 44 710 254 882 581 79 150 128 312 160 534 8 53 11 755 13 2314
l1 2237 -35 1 c-20 0 -211 1 -426 1 l-390 1 -2 -2184 c-1 -1201 -4 -2215 -7
-2254 -19 -248 -120 -383 -320 -429 -82 -19 -218 -12 -291 15 -134 49 -225
156 -251 297 -2 12 -7 34 -11 50 -4 15 -8 1032 -9 2260 -1 1228 -4 2236 -7
2239 -7 7 -853 10 -870 3z"/>
</g>
</svg>
